<mxfile host="app.diagrams.net" agent="Mozilla/5.0 (Windows NT 10.0; Win64; x64) AppleWebKit/537.36 (KHTML, like Gecko) Chrome/136.0.0.0 Safari/537.36 Edg/136.0.0.0" version="27.0.6">
  <diagram id="R2lEEEUBdFMjLlhIrx00" name="Page-1">
    <mxGraphModel dx="2080" dy="686" grid="1" gridSize="10" guides="1" tooltips="1" connect="1" arrows="1" fold="1" page="1" pageScale="1" pageWidth="850" pageHeight="1100" math="0" shadow="0" extFonts="Permanent Marker^https://fonts.googleapis.com/css?family=Permanent+Marker">
      <root>
        <mxCell id="0" />
        <mxCell id="1" parent="0" />
        <mxCell id="DVsW5HRaYk_oVRqKMWnU-54" value="" style="shape=doubleRect;rounded=0;whiteSpace=wrap;html=1;" parent="1" vertex="1">
          <mxGeometry y="590" width="125" height="60" as="geometry" />
        </mxCell>
        <mxCell id="DVsW5HRaYk_oVRqKMWnU-56" value="Dependent&amp;nbsp;" style="rounded=0;whiteSpace=wrap;html=1;" parent="1" vertex="1">
          <mxGeometry x="7.5" y="600" width="110" height="40" as="geometry" />
        </mxCell>
        <mxCell id="DVsW5HRaYk_oVRqKMWnU-19" style="edgeStyle=orthogonalEdgeStyle;rounded=0;orthogonalLoop=1;jettySize=auto;html=1;" parent="1" source="DVsW5HRaYk_oVRqKMWnU-14" edge="1">
          <mxGeometry relative="1" as="geometry">
            <mxPoint x="50" y="130" as="targetPoint" />
          </mxGeometry>
        </mxCell>
        <mxCell id="DVsW5HRaYk_oVRqKMWnU-14" value="&lt;span style=&quot;color: rgb(0, 0, 0); font-family: Helvetica; font-size: 12px; font-style: normal; font-variant-ligatures: normal; font-variant-caps: normal; font-weight: 700; letter-spacing: normal; orphans: 2; text-align: left; text-indent: 0px; text-transform: none; widows: 2; word-spacing: 0px; -webkit-text-stroke-width: 0px; white-space: nowrap; background-color: rgb(236, 236, 236); text-decoration: underline; float: none; display: inline !important;&quot;&gt;SSN&amp;nbsp;&lt;/span&gt;" style="ellipse;whiteSpace=wrap;html=1;" parent="1" vertex="1">
          <mxGeometry x="-120" y="40" width="110" height="60" as="geometry" />
        </mxCell>
        <mxCell id="DVsW5HRaYk_oVRqKMWnU-15" value="&#xa;&lt;span style=&quot;color: rgb(0, 0, 0); font-family: Helvetica; font-size: 12px; font-style: normal; font-variant-ligatures: normal; font-variant-caps: normal; font-weight: 700; letter-spacing: normal; orphans: 2; text-align: center; text-indent: 0px; text-transform: none; widows: 2; word-spacing: 0px; -webkit-text-stroke-width: 0px; white-space: nowrap; background-color: rgb(236, 236, 236); text-decoration-thickness: initial; text-decoration-style: initial; text-decoration-color: initial; display: inline !important; float: none;&quot;&gt;Employee&amp;nbsp;&lt;/span&gt;&#xa;&#xa;" style="rounded=0;whiteSpace=wrap;html=1;" parent="1" vertex="1">
          <mxGeometry x="30" y="130" width="120" height="60" as="geometry" />
        </mxCell>
        <mxCell id="DVsW5HRaYk_oVRqKMWnU-18" value="&lt;span style=&quot;text-align: left; text-wrap-mode: nowrap;&quot;&gt;Name&lt;/span&gt;" style="ellipse;whiteSpace=wrap;html=1;" parent="1" vertex="1">
          <mxGeometry x="-140" y="140" width="110" height="60" as="geometry" />
        </mxCell>
        <mxCell id="DVsW5HRaYk_oVRqKMWnU-20" value="&lt;span style=&quot;text-align: left; text-wrap-mode: nowrap;&quot;&gt;LName&lt;/span&gt;" style="ellipse;whiteSpace=wrap;html=1;" parent="1" vertex="1">
          <mxGeometry x="-290" y="200" width="110" height="60" as="geometry" />
        </mxCell>
        <mxCell id="DVsW5HRaYk_oVRqKMWnU-23" style="edgeStyle=orthogonalEdgeStyle;rounded=0;orthogonalLoop=1;jettySize=auto;html=1;entryX=0;entryY=0.5;entryDx=0;entryDy=0;" parent="1" source="DVsW5HRaYk_oVRqKMWnU-21" target="DVsW5HRaYk_oVRqKMWnU-18" edge="1">
          <mxGeometry relative="1" as="geometry" />
        </mxCell>
        <mxCell id="DVsW5HRaYk_oVRqKMWnU-21" value="&lt;span style=&quot;text-align: left; text-wrap-mode: nowrap;&quot;&gt;FName&lt;/span&gt;" style="ellipse;whiteSpace=wrap;html=1;" parent="1" vertex="1">
          <mxGeometry x="-290" y="80" width="110" height="60" as="geometry" />
        </mxCell>
        <mxCell id="DVsW5HRaYk_oVRqKMWnU-24" style="edgeStyle=orthogonalEdgeStyle;rounded=0;orthogonalLoop=1;jettySize=auto;html=1;entryX=0.091;entryY=0.5;entryDx=0;entryDy=0;entryPerimeter=0;" parent="1" source="DVsW5HRaYk_oVRqKMWnU-20" target="DVsW5HRaYk_oVRqKMWnU-18" edge="1">
          <mxGeometry relative="1" as="geometry" />
        </mxCell>
        <mxCell id="DVsW5HRaYk_oVRqKMWnU-25" style="edgeStyle=orthogonalEdgeStyle;rounded=0;orthogonalLoop=1;jettySize=auto;html=1;entryX=0.083;entryY=0.667;entryDx=0;entryDy=0;entryPerimeter=0;" parent="1" source="DVsW5HRaYk_oVRqKMWnU-18" target="DVsW5HRaYk_oVRqKMWnU-15" edge="1">
          <mxGeometry relative="1" as="geometry" />
        </mxCell>
        <mxCell id="DVsW5HRaYk_oVRqKMWnU-27" style="edgeStyle=orthogonalEdgeStyle;rounded=0;orthogonalLoop=1;jettySize=auto;html=1;" parent="1" source="DVsW5HRaYk_oVRqKMWnU-26" edge="1">
          <mxGeometry relative="1" as="geometry">
            <mxPoint x="30" y="190" as="targetPoint" />
            <Array as="points">
              <mxPoint y="190" />
            </Array>
          </mxGeometry>
        </mxCell>
        <mxCell id="DVsW5HRaYk_oVRqKMWnU-26" value="&lt;span style=&quot;text-align: left; text-wrap-mode: nowrap;&quot;&gt;Gender&lt;/span&gt;" style="ellipse;whiteSpace=wrap;html=1;" parent="1" vertex="1">
          <mxGeometry x="-110" y="230" width="110" height="60" as="geometry" />
        </mxCell>
        <mxCell id="DVsW5HRaYk_oVRqKMWnU-31" style="edgeStyle=orthogonalEdgeStyle;rounded=0;orthogonalLoop=1;jettySize=auto;html=1;entryX=0.5;entryY=0;entryDx=0;entryDy=0;" parent="1" source="DVsW5HRaYk_oVRqKMWnU-28" target="DVsW5HRaYk_oVRqKMWnU-15" edge="1">
          <mxGeometry relative="1" as="geometry" />
        </mxCell>
        <mxCell id="DVsW5HRaYk_oVRqKMWnU-28" value="&lt;div style=&quot;text-align: left;&quot;&gt;&lt;span style=&quot;background-color: transparent; color: light-dark(rgb(0, 0, 0), rgb(255, 255, 255)); text-wrap-mode: nowrap;&quot;&gt;DoB&lt;/span&gt;&lt;/div&gt;" style="ellipse;whiteSpace=wrap;html=1;points=[[0,0,0,0,0],[0,0.5,0,0,0],[0,1,0,0,0],[0.5,0,0,0,0],[0.5,1,0,0,0],[1,0,0,0,0],[1,0.5,0,0,0],[1,1,0,0,0]];" parent="1" vertex="1">
          <mxGeometry x="40" width="110" height="60" as="geometry" />
        </mxCell>
        <mxCell id="DVsW5HRaYk_oVRqKMWnU-33" value="Department" style="rounded=0;whiteSpace=wrap;html=1;" parent="1" vertex="1">
          <mxGeometry x="520" y="110" width="120" height="60" as="geometry" />
        </mxCell>
        <mxCell id="DVsW5HRaYk_oVRqKMWnU-40" style="edgeStyle=orthogonalEdgeStyle;rounded=0;orthogonalLoop=1;jettySize=auto;html=1;entryX=0.5;entryY=0;entryDx=0;entryDy=0;" parent="1" source="DVsW5HRaYk_oVRqKMWnU-34" target="DVsW5HRaYk_oVRqKMWnU-33" edge="1">
          <mxGeometry relative="1" as="geometry" />
        </mxCell>
        <mxCell id="DVsW5HRaYk_oVRqKMWnU-34" value="&lt;span style=&quot;color: rgb(0, 0, 0); font-family: Helvetica; font-size: 12px; font-style: normal; font-variant-ligatures: normal; font-variant-caps: normal; font-weight: 700; letter-spacing: normal; orphans: 2; text-align: left; text-indent: 0px; text-transform: none; widows: 2; word-spacing: 0px; -webkit-text-stroke-width: 0px; white-space: nowrap; background-color: rgb(236, 236, 236); text-decoration: underline; float: none; display: inline !important;&quot;&gt;DNUM&amp;nbsp;&lt;/span&gt;" style="ellipse;whiteSpace=wrap;html=1;" parent="1" vertex="1">
          <mxGeometry x="650" y="20" width="110" height="60" as="geometry" />
        </mxCell>
        <mxCell id="DVsW5HRaYk_oVRqKMWnU-35" value="DName" style="ellipse;whiteSpace=wrap;html=1;" parent="1" vertex="1">
          <mxGeometry x="690" y="120" width="110" height="60" as="geometry" />
        </mxCell>
        <mxCell id="DVsW5HRaYk_oVRqKMWnU-36" value="locations" style="shape=doubleEllipse;whiteSpace=wrap;html=1;" parent="1" vertex="1">
          <mxGeometry x="680" y="210" width="110" height="60" as="geometry" />
        </mxCell>
        <mxCell id="DVsW5HRaYk_oVRqKMWnU-41" style="edgeStyle=orthogonalEdgeStyle;rounded=0;orthogonalLoop=1;jettySize=auto;html=1;entryX=1.036;entryY=0.635;entryDx=0;entryDy=0;entryPerimeter=0;" parent="1" source="DVsW5HRaYk_oVRqKMWnU-35" target="DVsW5HRaYk_oVRqKMWnU-33" edge="1">
          <mxGeometry relative="1" as="geometry" />
        </mxCell>
        <mxCell id="DVsW5HRaYk_oVRqKMWnU-42" style="edgeStyle=orthogonalEdgeStyle;rounded=0;orthogonalLoop=1;jettySize=auto;html=1;" parent="1" source="DVsW5HRaYk_oVRqKMWnU-36" edge="1">
          <mxGeometry relative="1" as="geometry">
            <mxPoint x="640" y="170" as="targetPoint" />
            <Array as="points">
              <mxPoint x="640" y="240" />
              <mxPoint x="640" y="171" />
            </Array>
          </mxGeometry>
        </mxCell>
        <mxCell id="DVsW5HRaYk_oVRqKMWnU-44" value="Project" style="rounded=0;whiteSpace=wrap;html=1;" parent="1" vertex="1">
          <mxGeometry x="530.29" y="470" width="120" height="60" as="geometry" />
        </mxCell>
        <mxCell id="DVsW5HRaYk_oVRqKMWnU-45" value="Pname" style="ellipse;whiteSpace=wrap;html=1;" parent="1" vertex="1">
          <mxGeometry x="690.29" y="420" width="110" height="60" as="geometry" />
        </mxCell>
        <mxCell id="DVsW5HRaYk_oVRqKMWnU-46" value="City" style="ellipse;whiteSpace=wrap;html=1;" parent="1" vertex="1">
          <mxGeometry x="720.29" y="660" width="110" height="60" as="geometry" />
        </mxCell>
        <mxCell id="DVsW5HRaYk_oVRqKMWnU-47" value="Location" style="ellipse;whiteSpace=wrap;html=1;" parent="1" vertex="1">
          <mxGeometry x="630.29" y="590" width="110" height="60" as="geometry" />
        </mxCell>
        <mxCell id="DVsW5HRaYk_oVRqKMWnU-51" style="edgeStyle=orthogonalEdgeStyle;rounded=0;orthogonalLoop=1;jettySize=auto;html=1;entryX=1;entryY=0.5;entryDx=0;entryDy=0;" parent="1" source="DVsW5HRaYk_oVRqKMWnU-48" target="DVsW5HRaYk_oVRqKMWnU-44" edge="1">
          <mxGeometry relative="1" as="geometry" />
        </mxCell>
        <mxCell id="DVsW5HRaYk_oVRqKMWnU-48" value="&lt;span style=&quot;color: rgb(0, 0, 0); font-family: Helvetica; font-size: 12px; font-style: normal; font-variant-ligatures: normal; font-variant-caps: normal; font-weight: 700; letter-spacing: normal; orphans: 2; text-align: left; text-indent: 0px; text-transform: none; widows: 2; word-spacing: 0px; -webkit-text-stroke-width: 0px; white-space: nowrap; background-color: rgb(236, 236, 236); text-decoration: underline; float: none; display: inline !important;&quot;&gt;&lt;span style=&quot;font-weight: 400; text-align: center; text-wrap-mode: wrap;&quot;&gt;PNumber&lt;/span&gt;&amp;nbsp;&lt;/span&gt;" style="ellipse;whiteSpace=wrap;html=1;" parent="1" vertex="1">
          <mxGeometry x="700.29" y="510" width="110" height="60" as="geometry" />
        </mxCell>
        <mxCell id="DVsW5HRaYk_oVRqKMWnU-50" style="edgeStyle=orthogonalEdgeStyle;rounded=0;orthogonalLoop=1;jettySize=auto;html=1;entryX=0.648;entryY=-0.016;entryDx=0;entryDy=0;entryPerimeter=0;" parent="1" source="DVsW5HRaYk_oVRqKMWnU-45" target="DVsW5HRaYk_oVRqKMWnU-44" edge="1">
          <mxGeometry relative="1" as="geometry" />
        </mxCell>
        <mxCell id="DVsW5HRaYk_oVRqKMWnU-52" style="edgeStyle=orthogonalEdgeStyle;rounded=0;orthogonalLoop=1;jettySize=auto;html=1;entryX=0.656;entryY=0.938;entryDx=0;entryDy=0;entryPerimeter=0;" parent="1" target="DVsW5HRaYk_oVRqKMWnU-44" edge="1">
          <mxGeometry relative="1" as="geometry">
            <mxPoint x="665.29" y="590" as="sourcePoint" />
          </mxGeometry>
        </mxCell>
        <mxCell id="DVsW5HRaYk_oVRqKMWnU-53" style="edgeStyle=orthogonalEdgeStyle;rounded=0;orthogonalLoop=1;jettySize=auto;html=1;entryX=0.625;entryY=1.059;entryDx=0;entryDy=0;entryPerimeter=0;" parent="1" source="DVsW5HRaYk_oVRqKMWnU-46" edge="1">
          <mxGeometry relative="1" as="geometry">
            <mxPoint x="679.04" y="653.54" as="targetPoint" />
          </mxGeometry>
        </mxCell>
        <mxCell id="DVsW5HRaYk_oVRqKMWnU-61" style="edgeStyle=orthogonalEdgeStyle;rounded=0;orthogonalLoop=1;jettySize=auto;html=1;entryX=0.5;entryY=0;entryDx=0;entryDy=0;" parent="1" source="DVsW5HRaYk_oVRqKMWnU-57" target="DVsW5HRaYk_oVRqKMWnU-54" edge="1">
          <mxGeometry relative="1" as="geometry" />
        </mxCell>
        <mxCell id="DVsW5HRaYk_oVRqKMWnU-57" value="Gender" style="ellipse;whiteSpace=wrap;html=1;" parent="1" vertex="1">
          <mxGeometry x="-130" y="530" width="110" height="60" as="geometry" />
        </mxCell>
        <mxCell id="DVsW5HRaYk_oVRqKMWnU-62" style="edgeStyle=orthogonalEdgeStyle;rounded=0;orthogonalLoop=1;jettySize=auto;html=1;entryX=0;entryY=0.75;entryDx=0;entryDy=0;" parent="1" source="DVsW5HRaYk_oVRqKMWnU-58" target="DVsW5HRaYk_oVRqKMWnU-54" edge="1">
          <mxGeometry relative="1" as="geometry" />
        </mxCell>
        <mxCell id="DVsW5HRaYk_oVRqKMWnU-58" value="&lt;span style=&quot;color: rgb(0, 0, 0); font-family: Helvetica; font-size: 12px; font-style: normal; font-variant-ligatures: normal; font-variant-caps: normal; font-weight: 700; letter-spacing: normal; orphans: 2; text-align: left; text-indent: 0px; text-transform: none; widows: 2; word-spacing: 0px; -webkit-text-stroke-width: 0px; white-space: nowrap; background-color: rgb(236, 236, 236); text-decoration: underline; float: none; display: inline !important;&quot;&gt;&lt;span style=&quot;font-weight: 400; text-align: center; text-wrap-mode: wrap;&quot;&gt;Dependent Name&lt;/span&gt;&amp;nbsp;&lt;/span&gt;" style="ellipse;whiteSpace=wrap;html=1;" parent="1" vertex="1">
          <mxGeometry x="-180" y="600" width="110" height="60" as="geometry" />
        </mxCell>
        <mxCell id="DVsW5HRaYk_oVRqKMWnU-63" style="edgeStyle=orthogonalEdgeStyle;rounded=0;orthogonalLoop=1;jettySize=auto;html=1;" parent="1" source="DVsW5HRaYk_oVRqKMWnU-60" edge="1">
          <mxGeometry relative="1" as="geometry">
            <mxPoint x="70" y="655" as="targetPoint" />
          </mxGeometry>
        </mxCell>
        <mxCell id="DVsW5HRaYk_oVRqKMWnU-60" value="&lt;div style=&quot;text-align: left;&quot;&gt;&lt;span style=&quot;background-color: transparent; color: light-dark(rgb(0, 0, 0), rgb(255, 255, 255)); text-wrap-mode: nowrap;&quot;&gt;DoB&lt;/span&gt;&lt;/div&gt;" style="ellipse;whiteSpace=wrap;html=1;dashed=1;dashPattern=1 4;points=[[0,0,0,0,0],[0,0.5,0,0,0],[0,1,0,0,0],[0.5,0,0,0,0],[0.5,1,0,0,0],[1,0,0,0,0],[1,0.5,0,0,0],[1,1,0,0,0]];" parent="1" vertex="1">
          <mxGeometry x="-170" y="695" width="110" height="60" as="geometry" />
        </mxCell>
        <mxCell id="DVsW5HRaYk_oVRqKMWnU-67" value="Works On" style="rhombus;whiteSpace=wrap;html=1;" parent="1" vertex="1">
          <mxGeometry x="300" y="310" width="80" height="80" as="geometry" />
        </mxCell>
        <mxCell id="DVsW5HRaYk_oVRqKMWnU-68" value="" style="endArrow=none;html=1;rounded=0;entryX=0;entryY=0;entryDx=0;entryDy=0;exitX=1;exitY=1;exitDx=0;exitDy=0;shape=link;" parent="1" source="DVsW5HRaYk_oVRqKMWnU-67" target="DVsW5HRaYk_oVRqKMWnU-44" edge="1">
          <mxGeometry width="50" height="50" relative="1" as="geometry">
            <mxPoint x="465" y="320" as="sourcePoint" />
            <mxPoint x="515" y="270" as="targetPoint" />
          </mxGeometry>
        </mxCell>
        <mxCell id="DVsW5HRaYk_oVRqKMWnU-85" value="M" style="edgeLabel;html=1;align=center;verticalAlign=middle;resizable=0;points=[];" parent="DVsW5HRaYk_oVRqKMWnU-68" vertex="1" connectable="0">
          <mxGeometry x="0.381" y="-2" relative="1" as="geometry">
            <mxPoint as="offset" />
          </mxGeometry>
        </mxCell>
        <mxCell id="DVsW5HRaYk_oVRqKMWnU-69" value="" style="endArrow=none;html=1;rounded=0;exitX=1;exitY=0.5;exitDx=0;exitDy=0;" parent="1" source="DVsW5HRaYk_oVRqKMWnU-15" target="DVsW5HRaYk_oVRqKMWnU-67" edge="1">
          <mxGeometry width="50" height="50" relative="1" as="geometry">
            <mxPoint x="290" y="250" as="sourcePoint" />
            <mxPoint x="380" y="310" as="targetPoint" />
          </mxGeometry>
        </mxCell>
        <mxCell id="DVsW5HRaYk_oVRqKMWnU-86" value="M" style="edgeLabel;html=1;align=center;verticalAlign=middle;resizable=0;points=[];" parent="DVsW5HRaYk_oVRqKMWnU-69" vertex="1" connectable="0">
          <mxGeometry x="0.2027" y="-1" relative="1" as="geometry">
            <mxPoint x="-1" as="offset" />
          </mxGeometry>
        </mxCell>
        <mxCell id="DVsW5HRaYk_oVRqKMWnU-70" value="Mange" style="rhombus;whiteSpace=wrap;html=1;" parent="1" vertex="1">
          <mxGeometry x="320" y="90" width="80" height="80" as="geometry" />
        </mxCell>
        <mxCell id="DVsW5HRaYk_oVRqKMWnU-72" value="" style="endArrow=none;html=1;rounded=0;entryX=0;entryY=0.5;entryDx=0;entryDy=0;" parent="1" target="DVsW5HRaYk_oVRqKMWnU-70" edge="1">
          <mxGeometry width="50" height="50" relative="1" as="geometry">
            <mxPoint x="150" y="138" as="sourcePoint" />
            <mxPoint x="272" y="142" as="targetPoint" />
          </mxGeometry>
        </mxCell>
        <mxCell id="DVsW5HRaYk_oVRqKMWnU-99" value="1" style="edgeLabel;html=1;align=center;verticalAlign=middle;resizable=0;points=[];" parent="DVsW5HRaYk_oVRqKMWnU-72" vertex="1" connectable="0">
          <mxGeometry x="0.3312" y="-1" relative="1" as="geometry">
            <mxPoint as="offset" />
          </mxGeometry>
        </mxCell>
        <mxCell id="DVsW5HRaYk_oVRqKMWnU-73" value="Has Dependents" style="rhombus;whiteSpace=wrap;html=1;" parent="1" vertex="1">
          <mxGeometry x="130" y="410" width="80" height="80" as="geometry" />
        </mxCell>
        <mxCell id="DVsW5HRaYk_oVRqKMWnU-74" value="" style="endArrow=none;html=1;rounded=0;entryX=0.914;entryY=0.999;entryDx=0;entryDy=0;entryPerimeter=0;" parent="1" target="DVsW5HRaYk_oVRqKMWnU-15" edge="1">
          <mxGeometry width="50" height="50" relative="1" as="geometry">
            <mxPoint x="170" y="410" as="sourcePoint" />
            <mxPoint x="220" y="360" as="targetPoint" />
          </mxGeometry>
        </mxCell>
        <mxCell id="DVsW5HRaYk_oVRqKMWnU-90" value="1" style="edgeLabel;html=1;align=center;verticalAlign=middle;resizable=0;points=[];" parent="DVsW5HRaYk_oVRqKMWnU-74" vertex="1" connectable="0">
          <mxGeometry x="-0.6042" y="-1" relative="1" as="geometry">
            <mxPoint as="offset" />
          </mxGeometry>
        </mxCell>
        <mxCell id="DVsW5HRaYk_oVRqKMWnU-76" value="Works In" style="rhombus;whiteSpace=wrap;html=1;" parent="1" vertex="1">
          <mxGeometry x="320" width="80" height="80" as="geometry" />
        </mxCell>
        <mxCell id="DVsW5HRaYk_oVRqKMWnU-77" value="" style="endArrow=none;html=1;rounded=0;exitX=1;exitY=0;exitDx=0;exitDy=0;entryX=0.088;entryY=-0.047;entryDx=0;entryDy=0;entryPerimeter=0;" parent="1" target="DVsW5HRaYk_oVRqKMWnU-33" edge="1">
          <mxGeometry width="50" height="50" relative="1" as="geometry">
            <mxPoint x="388" y="58" as="sourcePoint" />
            <mxPoint x="530" y="100" as="targetPoint" />
          </mxGeometry>
        </mxCell>
        <mxCell id="DVsW5HRaYk_oVRqKMWnU-88" value="1" style="edgeLabel;html=1;align=center;verticalAlign=middle;resizable=0;points=[];" parent="DVsW5HRaYk_oVRqKMWnU-77" vertex="1" connectable="0">
          <mxGeometry x="-0.4172" y="-1" relative="1" as="geometry">
            <mxPoint as="offset" />
          </mxGeometry>
        </mxCell>
        <mxCell id="DVsW5HRaYk_oVRqKMWnU-78" value="" style="shape=link;html=1;rounded=0;exitX=1;exitY=0;exitDx=0;exitDy=0;" parent="1" source="DVsW5HRaYk_oVRqKMWnU-15" edge="1">
          <mxGeometry width="100" relative="1" as="geometry">
            <mxPoint x="240" y="49.5" as="sourcePoint" />
            <mxPoint x="330" y="50" as="targetPoint" />
          </mxGeometry>
        </mxCell>
        <mxCell id="DVsW5HRaYk_oVRqKMWnU-87" value="M" style="edgeLabel;html=1;align=center;verticalAlign=middle;resizable=0;points=[];" parent="DVsW5HRaYk_oVRqKMWnU-78" vertex="1" connectable="0">
          <mxGeometry x="0.5775" y="-1" relative="1" as="geometry">
            <mxPoint y="-1" as="offset" />
          </mxGeometry>
        </mxCell>
        <mxCell id="DVsW5HRaYk_oVRqKMWnU-79" value="&lt;div style=&quot;text-align: left;&quot;&gt;&lt;span style=&quot;background-color: transparent; color: light-dark(rgb(0, 0, 0), rgb(255, 255, 255)); text-wrap-mode: nowrap;&quot;&gt;Hiring Date&lt;/span&gt;&lt;/div&gt;" style="ellipse;whiteSpace=wrap;html=1;dashed=1;dashPattern=1 4;points=[[0,0,0,0,0],[0,0.5,0,0,0],[0,1,0,0,0],[0.5,0,0,0,0],[0.5,1,0,0,0],[1,0,0,0,0],[1,0.5,0,0,0],[1,1,0,0,0]];" parent="1" vertex="1">
          <mxGeometry x="350" y="200" width="110" height="60" as="geometry" />
        </mxCell>
        <mxCell id="DVsW5HRaYk_oVRqKMWnU-82" style="edgeStyle=orthogonalEdgeStyle;rounded=0;orthogonalLoop=1;jettySize=auto;html=1;entryX=0;entryY=0.667;entryDx=0;entryDy=0;entryPerimeter=0;" parent="1" source="DVsW5HRaYk_oVRqKMWnU-70" target="DVsW5HRaYk_oVRqKMWnU-79" edge="1">
          <mxGeometry relative="1" as="geometry" />
        </mxCell>
        <mxCell id="DVsW5HRaYk_oVRqKMWnU-83" value="Working Hours" style="ellipse;whiteSpace=wrap;html=1;" parent="1" vertex="1">
          <mxGeometry x="280" y="430" width="110" height="60" as="geometry" />
        </mxCell>
        <mxCell id="DVsW5HRaYk_oVRqKMWnU-84" style="edgeStyle=orthogonalEdgeStyle;rounded=0;orthogonalLoop=1;jettySize=auto;html=1;entryX=0.567;entryY=0.074;entryDx=0;entryDy=0;entryPerimeter=0;" parent="1" source="DVsW5HRaYk_oVRqKMWnU-67" target="DVsW5HRaYk_oVRqKMWnU-83" edge="1">
          <mxGeometry relative="1" as="geometry" />
        </mxCell>
        <mxCell id="DVsW5HRaYk_oVRqKMWnU-89" value="" style="endArrow=none;html=1;rounded=0;exitX=0.75;exitY=0;exitDx=0;exitDy=0;shape=link;entryX=0.382;entryY=0.905;entryDx=0;entryDy=0;entryPerimeter=0;" parent="1" source="DVsW5HRaYk_oVRqKMWnU-54" target="DVsW5HRaYk_oVRqKMWnU-73" edge="1">
          <mxGeometry width="50" height="50" relative="1" as="geometry">
            <mxPoint x="100" y="580" as="sourcePoint" />
            <mxPoint x="150" y="490" as="targetPoint" />
          </mxGeometry>
        </mxCell>
        <mxCell id="DVsW5HRaYk_oVRqKMWnU-91" value="M" style="edgeLabel;html=1;align=center;verticalAlign=middle;resizable=0;points=[];" parent="DVsW5HRaYk_oVRqKMWnU-89" vertex="1" connectable="0">
          <mxGeometry x="0.1121" y="-1" relative="1" as="geometry">
            <mxPoint as="offset" />
          </mxGeometry>
        </mxCell>
        <mxCell id="DVsW5HRaYk_oVRqKMWnU-92" value="&lt;table&gt;&lt;tbody&gt;&lt;tr&gt;&lt;td data-col-size=&quot;sm&quot; data-end=&quot;1105&quot; data-start=&quot;1082&quot;&gt;&lt;strong data-end=&quot;1098&quot; data-start=&quot;1084&quot;&gt;Supervises&lt;/strong&gt;&lt;/td&gt;&lt;/tr&gt;&lt;/tbody&gt;&lt;/table&gt;&lt;table&gt;&lt;tbody&gt;&lt;tr&gt;&lt;td data-end=&quot;1133&quot; data-start=&quot;1105&quot; data-col-size=&quot;sm&quot;&gt;&lt;/td&gt;&lt;/tr&gt;&lt;/tbody&gt;&lt;/table&gt;" style="rhombus;whiteSpace=wrap;html=1;" parent="1" vertex="1">
          <mxGeometry x="20" y="260" width="80" height="80" as="geometry" />
        </mxCell>
        <mxCell id="DVsW5HRaYk_oVRqKMWnU-93" value="" style="endArrow=none;html=1;rounded=0;exitX=0.5;exitY=0;exitDx=0;exitDy=0;" parent="1" source="DVsW5HRaYk_oVRqKMWnU-92" edge="1">
          <mxGeometry width="50" height="50" relative="1" as="geometry">
            <mxPoint x="100" y="410" as="sourcePoint" />
            <mxPoint x="60" y="190" as="targetPoint" />
          </mxGeometry>
        </mxCell>
        <mxCell id="DVsW5HRaYk_oVRqKMWnU-94" value="M" style="edgeLabel;html=1;align=center;verticalAlign=middle;resizable=0;points=[];" parent="DVsW5HRaYk_oVRqKMWnU-93" vertex="1" connectable="0">
          <mxGeometry x="-0.6042" y="-1" relative="1" as="geometry">
            <mxPoint as="offset" />
          </mxGeometry>
        </mxCell>
        <mxCell id="DVsW5HRaYk_oVRqKMWnU-95" value="" style="endArrow=none;html=1;rounded=0;exitX=1;exitY=0;exitDx=0;exitDy=0;entryX=0.595;entryY=0.968;entryDx=0;entryDy=0;entryPerimeter=0;shape=link;" parent="1" source="DVsW5HRaYk_oVRqKMWnU-92" edge="1">
          <mxGeometry width="50" height="50" relative="1" as="geometry">
            <mxPoint x="100" y="281.92" as="sourcePoint" />
            <mxPoint x="121.40000000000009" y="190.00000000000003" as="targetPoint" />
            <Array as="points">
              <mxPoint x="120" y="282" />
            </Array>
          </mxGeometry>
        </mxCell>
        <mxCell id="DVsW5HRaYk_oVRqKMWnU-96" value="1" style="edgeLabel;html=1;align=center;verticalAlign=middle;resizable=0;points=[];" parent="DVsW5HRaYk_oVRqKMWnU-95" vertex="1" connectable="0">
          <mxGeometry x="-0.6042" y="-1" relative="1" as="geometry">
            <mxPoint as="offset" />
          </mxGeometry>
        </mxCell>
        <mxCell id="DVsW5HRaYk_oVRqKMWnU-97" value="" style="shape=link;html=1;rounded=0;exitX=1;exitY=0.5;exitDx=0;exitDy=0;entryX=-0.026;entryY=0.377;entryDx=0;entryDy=0;entryPerimeter=0;" parent="1" source="DVsW5HRaYk_oVRqKMWnU-70" target="DVsW5HRaYk_oVRqKMWnU-33" edge="1">
          <mxGeometry width="100" relative="1" as="geometry">
            <mxPoint x="390" y="120" as="sourcePoint" />
            <mxPoint x="510" y="140" as="targetPoint" />
          </mxGeometry>
        </mxCell>
        <mxCell id="DVsW5HRaYk_oVRqKMWnU-98" value="1" style="edgeLabel;html=1;align=center;verticalAlign=middle;resizable=0;points=[];" parent="DVsW5HRaYk_oVRqKMWnU-97" vertex="1" connectable="0">
          <mxGeometry x="-0.1591" y="2" relative="1" as="geometry">
            <mxPoint as="offset" />
          </mxGeometry>
        </mxCell>
        <mxCell id="DVsW5HRaYk_oVRqKMWnU-105" value="Has" style="rhombus;whiteSpace=wrap;html=1;" parent="1" vertex="1">
          <mxGeometry x="570.29" y="270" width="80" height="80" as="geometry" />
        </mxCell>
        <mxCell id="DVsW5HRaYk_oVRqKMWnU-106" value="" style="shape=link;html=1;rounded=0;entryX=0.563;entryY=-0.016;entryDx=0;entryDy=0;entryPerimeter=0;exitX=0.5;exitY=1;exitDx=0;exitDy=0;" parent="1" source="DVsW5HRaYk_oVRqKMWnU-105" target="DVsW5HRaYk_oVRqKMWnU-44" edge="1">
          <mxGeometry width="100" relative="1" as="geometry">
            <mxPoint x="620.29" y="340" as="sourcePoint" />
            <mxPoint x="720.29" y="340" as="targetPoint" />
          </mxGeometry>
        </mxCell>
        <mxCell id="DVsW5HRaYk_oVRqKMWnU-110" value="M" style="edgeLabel;html=1;align=center;verticalAlign=middle;resizable=0;points=[];" parent="DVsW5HRaYk_oVRqKMWnU-106" vertex="1" connectable="0">
          <mxGeometry x="-0.2864" y="-3" relative="1" as="geometry">
            <mxPoint as="offset" />
          </mxGeometry>
        </mxCell>
        <mxCell id="DVsW5HRaYk_oVRqKMWnU-107" value="" style="endArrow=none;html=1;rounded=0;entryX=0.5;entryY=0;entryDx=0;entryDy=0;" parent="1" target="DVsW5HRaYk_oVRqKMWnU-105" edge="1">
          <mxGeometry width="50" height="50" relative="1" as="geometry">
            <mxPoint x="610" y="173" as="sourcePoint" />
            <mxPoint x="546" y="256" as="targetPoint" />
            <Array as="points">
              <mxPoint x="610" y="200" />
            </Array>
          </mxGeometry>
        </mxCell>
        <mxCell id="DVsW5HRaYk_oVRqKMWnU-108" value="1" style="edgeLabel;html=1;align=center;verticalAlign=middle;resizable=0;points=[];" parent="DVsW5HRaYk_oVRqKMWnU-107" vertex="1" connectable="0">
          <mxGeometry x="0.1619" relative="1" as="geometry">
            <mxPoint as="offset" />
          </mxGeometry>
        </mxCell>
      </root>
    </mxGraphModel>
  </diagram>
</mxfile>
